<?xml version="1.0" encoding="utf-8"?>
<!-- Generator: Adobe Illustrator 22.1.0, SVG Export Plug-In . SVG Version: 6.00 Build 0)  -->
<svg version="1.1" id="Layer_1" xmlns="http://www.w3.org/2000/svg" xmlns:xlink="http://www.w3.org/1999/xlink" x="0px" y="0px"
	 viewBox="0 0 600 200" style="enable-background:new 0 0 600 200;" xml:space="preserve">
<style type="text/css">
	.st0{display:none;}
	.st1{display:inline;fill:none;stroke:#009640;}
	.st2{fill:#888888;}
</style>
<g id="Grid" class="st0">
	<line class="st1" x1="600" y1="0" x2="600" y2="600"/>
	<line class="st1" x1="560" y1="0" x2="560" y2="600"/>
	<line class="st1" x1="560" y1="0" x2="560" y2="600"/>
	<line class="st1" x1="520" y1="0" x2="520" y2="600"/>
	<line class="st1" x1="520" y1="0" x2="520" y2="600"/>
	<line class="st1" x1="480" y1="0" x2="480" y2="600"/>
	<line class="st1" x1="480" y1="0" x2="480" y2="600"/>
	<line class="st1" x1="440" y1="0" x2="440" y2="600"/>
	<line class="st1" x1="440" y1="0" x2="440" y2="600"/>
	<line class="st1" x1="400" y1="0" x2="400" y2="600"/>
	<line class="st1" x1="400" y1="0" x2="400" y2="600"/>
	<line class="st1" x1="360" y1="0" x2="360" y2="600"/>
	<line class="st1" x1="360" y1="0" x2="360" y2="600"/>
	<line class="st1" x1="320" y1="0" x2="320" y2="600"/>
	<line class="st1" x1="320" y1="0" x2="320" y2="600"/>
	<line class="st1" x1="280" y1="0" x2="280" y2="600"/>
	<line class="st1" x1="280" y1="0" x2="280" y2="600"/>
	<line class="st1" x1="240" y1="0" x2="240" y2="600"/>
	<line class="st1" x1="240" y1="0" x2="240" y2="600"/>
	<line class="st1" x1="200" y1="0" x2="200" y2="600"/>
	<line class="st1" x1="200" y1="0" x2="200" y2="600"/>
	<line class="st1" x1="160" y1="0" x2="160" y2="600"/>
	<line class="st1" x1="160" y1="0" x2="160" y2="600"/>
	<line class="st1" x1="120" y1="0" x2="120" y2="600"/>
	<line class="st1" x1="120" y1="0" x2="120" y2="600"/>
	<line class="st1" x1="80" y1="0" x2="80" y2="600"/>
	<line class="st1" x1="80" y1="0" x2="80" y2="600"/>
	<line class="st1" x1="40" y1="0" x2="40" y2="600"/>
	<line class="st1" x1="40" y1="0" x2="40" y2="600"/>
	<line class="st1" x1="0" y1="0" x2="0" y2="600"/>
	<line class="st1" x1="0.5" y1="200.5" x2="750.5" y2="200.5"/>
	<line class="st1" x1="0.5" y1="160.5" x2="750.5" y2="160.5"/>
	<line class="st1" x1="0.5" y1="160.5" x2="750.5" y2="160.5"/>
	<line class="st1" x1="0.5" y1="120.5" x2="750.5" y2="120.5"/>
	<line class="st1" x1="0.5" y1="120.5" x2="750.5" y2="120.5"/>
	<line class="st1" x1="0.5" y1="80.5" x2="750.5" y2="80.5"/>
	<line class="st1" x1="0.5" y1="80.5" x2="750.5" y2="80.5"/>
	<line class="st1" x1="0.5" y1="40.5" x2="750.5" y2="40.5"/>
	<line class="st1" x1="0.5" y1="40.5" x2="750.5" y2="40.5"/>
	<line class="st1" x1="0.5" y1="0.5" x2="750.5" y2="0.5"/>
</g>
<path d="M0,0v40h40V0H0z M26.7,11.7h-3.2c-1,0-1.8,0.4-1.8,1.5V15h5l-0.4,5h-4.6v13.3h-5V20h-3.3v-5h3.3v-3.2c0-3.4,1.8-5.1,5.8-5.1
	h4.2V11.7z"/>
<path d="M40,0v40h40V0H40z M71.4,15.4c0.3,7.7-5.4,16.3-15.6,16.3c-3.1,0-6-0.9-8.4-2.5c2.9,0.3,5.8-0.5,8.1-2.3
	c-2.4,0-4.4-1.6-5.1-3.8c0.9,0.2,1.7,0.1,2.5-0.1c-2.6-0.5-4.4-2.9-4.4-5.4c0.7,0.4,1.6,0.7,2.5,0.7c-2.4-1.6-3.1-4.8-1.7-7.3
	c2.7,3.3,6.7,5.5,11.3,5.7C59.8,13.3,62.4,10,66,10c1.6,0,3,0.7,4,1.7c1.2-0.2,2.4-0.7,3.5-1.3c-0.4,1.3-1.3,2.3-2.4,3
	c1.1-0.1,2.2-0.4,3.1-0.9C73.4,13.7,72.5,14.6,71.4,15.4z"/>
<path d="M80,0v40h40V0H80z M104.2,32.7c-0.7,0.1-0.9-0.3-0.9-0.6v-3.7c0-1.2-0.4-2.1-0.9-2.5c3-0.3,6.1-1.5,6.1-6.6
	c0-1.5-0.5-2.6-1.4-3.6c0.1-0.3,0.6-1.7-0.1-3.5c0,0-1.1-0.4-3.7,1.4c-1.1-0.3-2.2-0.4-3.3-0.5c-1.1,0-2.3,0.2-3.3,0.4
	c-2.5-1.7-3.7-1.4-3.7-1.4c-0.7,1.8-0.3,3.2-0.1,3.5c-0.9,0.9-1.4,2.1-1.4,3.6c0,5.1,3.1,6.3,6.1,6.6c-0.4,0.3-0.7,0.9-0.8,1.8
	C96,28,94,28.6,92.8,26.6c0,0-0.7-1.3-2-1.4c0,0-1.3,0-0.1,0.8c0,0,0.9,0.4,1.5,2c0,0,0.8,2.4,4.5,1.6V32c0,0.4-0.2,0.8-0.9,0.6
	c-5.3-1.8-9.1-6.8-9.1-12.7c0-7.4,6-13.3,13.3-13.3s13.3,6,13.3,13.3C113.3,25.9,109.5,30.9,104.2,32.7z"/>
<path class="st2" d="M20,40.5c-11,0-20,9-20,20c0,8.8,5.7,16.3,13.7,19c1,0.2,1.3-0.4,1.3-1v-3.7c-5.6,1.2-6.7-2.4-6.7-2.4
	c-0.9-2.3-2.2-2.9-2.2-2.9c-1.8-1.2,0.1-1.2,0.1-1.2c2,0.1,3.1,2.1,3.1,2.1c1.8,3.1,4.7,2.2,5.8,1.7c0.2-1.3,0.7-2.2,1.3-2.7
	c-4.4-0.5-9.1-2.2-9.1-9.9c0-2.2,0.8-4,2.1-5.4c-0.2-0.5-0.9-2.5,0.2-5.3c0,0,1.7-0.5,5.5,2c1.6-0.4,3.3-0.7,5-0.7
	c1.7,0,3.4,0.2,5,0.7c3.8-2.6,5.5-2,5.5-2c1.1,2.8,0.4,4.8,0.2,5.3c1.3,1.4,2.1,3.2,2.1,5.4c0,7.7-4.7,9.4-9.1,9.9
	c0.7,0.6,1.4,1.8,1.4,3.7v5.5c0,0.5,0.3,1.2,1.3,1c7.9-2.6,13.7-10.1,13.7-19C40,49.4,31,40.5,20,40.5z"/>
<path d="M120,0v40h40V0H120z M136.1,11.5h4.2c0,2.7,0,5.4,0,8c-1.4-1.1-2.8-2.2-4.2-3.4C136.1,14.6,136.1,13.1,136.1,11.5z
	 M129.2,28.5c-1.4,0-2.8,0-4.2,0V11.5h4c3.8,3,7.6,6,11.3,9c0,1.8,0,3.6,0,5.4c-3.7-2.9-7.4-5.9-11.1-8.8
	C129.2,20.9,129.2,24.7,129.2,28.5z M140.3,28.5h-4.3c0-1.6,0-3.3,0-4.9c1.4,1.1,2.8,2.2,4.3,3.4C140.3,27.4,140.3,28,140.3,28.5z
	 M154.9,21.4c-0.2,1.4-0.8,2.7-1.7,3.8c-1,1.2-2.2,2.2-3.7,2.7c-1.4,0.5-2.9,0.6-4.3,0.4c-0.8-0.1-1.6-0.4-2.4-0.7
	c-0.6-0.3-1.1-0.7-1.7-1.1c0-1.8,0-3.6,0-5.4c0.5,0.4,1,0.8,1.5,1.2c0.6,0.4,1.1,1,1.8,1.3c0.6,0.3,1.3,0.5,1.9,0.5
	c0.8,0,1.6-0.2,2.3-0.6c0.6-0.4,1.2-0.8,1.5-1.4c0.4-0.6,0.5-1.3,0.6-1.9c0-0.8-0.1-1.7-0.6-2.4c-0.4-0.6-0.9-1.1-1.5-1.5
	c-0.7-0.4-1.5-0.6-2.2-0.7c0-1.4,0-2.9,0-4.3h0.1c0.4,0,0.8,0,1.3,0.1c1.5,0.2,2.9,0.8,4,1.7c1.1,0.9,2,2,2.6,3.2
	C155,18.1,155.1,19.8,154.9,21.4z"/>
</svg>
